<svg width="22" height="17" viewBox="0 0 22 17" fill="none" xmlns="http://www.w3.org/2000/svg">
<path d="M4.71787 11.9127H15.2821C15.6818 11.9127 16 11.4721 16 10.9183C16 10.3534 15.6818 9.91272 15.2821 9.91272H4.71787C4.31815 9.91272 4 10.3534 4 10.9183C4 11.4721 4.31815 11.9127 4.71787 11.9127Z" fill="#DA2A49"/>
<path d="M2.69393 6.91272H17.306C17.6924 6.91272 18 6.47204 18 5.91837C18 5.3534 17.6924 4.91272 17.306 4.91272H2.69393C2.30754 4.91272 2 5.3534 2 5.91837C2 6.47204 2.30754 6.91272 2.69393 6.91272Z" fill="#DA2A49"/>
<path d="M0.686729 2.08716H19.3133C19.699 2.08716 20 1.64648 20 1.08151C20 0.527835 19.699 0.0871582 19.3133 0.0871582H0.686729C0.300926 0.0871582 0 0.527835 0 1.08151C0 1.64648 0.300926 2.08716 0.686729 2.08716Z" fill="#DA2A49"/>
<circle cx="16.5" cy="11.5" r="5.5" fill="#FFEFEF"/>
<circle cx="16.5" cy="11.5" r="4.125" fill="#DA2A49"/>
<path d="M15.881 13.1211L18.8953 10.1067C18.9665 10.0356 19.0495 10 19.1443 10C19.2392 10 19.3222 10.0356 19.3933 10.1067C19.4644 10.1778 19.5 10.2624 19.5 10.3603C19.5 10.4582 19.4644 10.5426 19.3933 10.6135L16.13 13.8858C16.0588 13.9569 15.9758 13.9925 15.881 13.9925C15.7861 13.9925 15.7031 13.9569 15.632 13.8858L14.1026 12.3564C14.0315 12.2852 13.9973 12.2008 14.0002 12.1031C14.003 12.0054 14.0401 11.9209 14.1115 11.8495C14.1829 11.7781 14.2674 11.7426 14.3651 11.7428C14.4628 11.7431 14.5472 11.7786 14.6183 11.8495L15.881 13.1211Z" fill="white"/>
</svg>
